<?xml version="1.0" encoding="iso-8859-1"?>
<!-- Uploaded to: SVG Repo, www.svgrepo.com, Generator: SVG Repo Mixer Tools -->
<!DOCTYPE svg PUBLIC "-//W3C//DTD SVG 1.1//EN" "http://www.w3.org/Graphics/SVG/1.1/DTD/svg11.dtd">
<svg fill="#FFFFFF" height="800px" width="800px" version="1.1" id="Capa_1" xmlns="http://www.w3.org/2000/svg" xmlns:xlink="http://www.w3.org/1999/xlink" 
	 viewBox="0 0 350.047 350.047" xml:space="preserve">
<g>
	<g>
		<path d="M136.265,85.51c4.143,0,7.5-3.357,7.5-7.5c0-4.142-3.357-7.5-7.5-7.5c-33.295,0-60.383,27.088-60.383,60.383
			c0,33.295,27.088,60.383,60.383,60.383c4.143,0,7.5-3.358,7.5-7.5c0-4.143-3.357-7.5-7.5-7.5
			c-25.023,0-45.383-20.358-45.383-45.383C90.882,105.868,111.241,85.51,136.265,85.51z"/>
		<path d="M326.779,276.677c-0.168-0.208-43.641-43.704-43.641-43.704V7.5c0-4.143-3.357-7.5-7.5-7.5H25.63
			c-4.142,0-7.5,3.357-7.5,7.5v335.047c0,4.143,3.358,7.5,7.5,7.5h250.008c4.143,0,7.5-3.357,7.5-7.5v-22.161
			c3.732,3.411,8.525,5.118,13.465,5.118c5.85,0,11.887-2.363,16.545-7.022l11.76-11.761
			C333.513,298.119,334.263,284.828,326.779,276.677z M33.13,335.047V15h235.008v202.973l-24.348-24.347
			c-0.002-0.001-0.002-0.001-0.002-0.001c-3.99-3.99-9.662-6.052-15.543-5.668c-5.602,0.37-10.965,2.854-15.105,6.994l-0.578,0.576
			l-10.602-10.602c12.377-14.588,19.865-33.448,19.865-54.033c0-46.125-37.525-83.65-83.649-83.65
			c-46.127,0-83.652,37.525-83.652,83.65c0,46.126,37.525,83.652,83.652,83.652c20.148,0,38.656-7.164,53.113-19.075l10.666,10.666
			l-0.576,0.576c-4.141,4.14-6.625,9.504-6.996,15.105c-0.391,5.888,1.676,11.553,5.668,15.545c0,0,0,0,0,0.001l68.086,68.087
			v29.598H33.13z M138.177,199.545c-37.855,0-68.652-30.797-68.652-68.652c0-37.854,30.797-68.65,68.652-68.65
			c37.852,0,68.649,30.797,68.649,68.65C206.825,168.748,176.029,199.545,138.177,199.545z M314.302,296.115l-11.76,11.761
			c-2.918,2.917-7.24,3.525-9.438,1.326l-82.445-82.447v-0.001l0,0c-1.281-1.279-1.369-3.021-1.309-3.946
			c0.129-1.943,1.09-3.943,2.635-5.489l11.762-11.761c1.545-1.545,3.545-2.505,5.486-2.634c0.922-0.054,2.67,0.028,3.947,1.309l0,0
			c0.002,0,0.002,0.001,0.002,0.001l82.447,82.445l0.002,0.003C317.825,288.883,317.218,293.2,314.302,296.115z"/>
	</g>
</g>
</svg>