<?xml version="1.0" encoding="iso-8859-1"?>
<!-- Uploaded to: SVG Repo, www.svgrepo.com, Generator: SVG Repo Mixer Tools -->
<svg fill="#FFFFFF" height="800px" width="800px" version="1.1" id="Layer_1" xmlns="http://www.w3.org/2000/svg" xmlns:xlink="http://www.w3.org/1999/xlink" 
	 viewBox="0 0 502 502" xml:space="preserve">
<g>
	<g>
		<g>
			<path d="M492,214.844H341.333V61.687c0-5.523-4.478-10-10-10H170.667c-5.522,0-10,4.477-10,10v94.62H10c-5.522,0-10,4.477-10,10
				v274.005c0,5.523,4.478,10,10,10h160.667h160.666H492c5.522,0,10-4.477,10-10V224.844C502,219.322,497.522,214.844,492,214.844z
				 M160.667,430.313H20V176.307h140.667V430.313z M321.333,224.844v205.468H180.667V166.307v-94.62h140.666V224.844z M482,430.313
				H341.333V234.844H482V430.313z"/>
			<path d="M255.917,202.579c0.654,0.04,0.954,0.03-0.945-0.153c-0.296,0-0.386,0.01-0.352,0.026
				c-1.662,0.065-3.108,0.562-4.317,1.53l-12.97,12.711c-6.042,6.042,3.298,15.382,9.339,9.338l1.686-1.621v61.802
				c0,8.545,13.23,8.546,13.23,0v-77.172C261.23,205.353,259.328,203.212,255.917,202.579z"/>
			<path d="M74.207,280.182c0-4.496,1.59-8.322,4.767-11.478c3.178-3.156,6.994-4.734,11.447-4.734
				c4.497,0,8.322,1.579,11.478,4.734c3.156,3.156,4.735,6.982,4.735,11.478c0,4.453-1.579,8.268-4.735,11.447
				c-3.156,3.177-7.879,6.387-14.17,9.63c-6.291,3.243-12.278,7.717-17.963,13.424c-5.685,5.707-8.527,12.581-8.527,20.622
				c0,1.773,0.626,3.297,1.88,4.572c1.254,1.276,2.789,1.913,4.605,1.913h45.394c8.372,0,8.373-12.97,0-12.97H75.504
				c0.778-1.816,1.923-3.48,3.437-4.994c3.154-3.153,7.874-6.351,14.158-9.591c1.577-0.813,3.166-1.632,0.012-0.006
				c6.291-3.242,12.277-7.717,17.963-13.424c5.685-5.707,8.527-12.581,8.527-20.623c0-8.084-2.843-14.969-8.527-20.655
				C105.389,253.843,98.504,251,90.42,251c-8.041,0-14.915,2.843-20.622,8.527c-5.707,5.686-8.56,12.571-8.56,20.655
				C61.238,288.565,74.207,288.591,74.207,280.182z"/>
			<path d="M388.404,365.82C388.436,365.853,388.423,365.84,388.404,365.82c0.087,0.087,0.173,0.151,0.259,0.194
				c6.313,6.356,13.943,9.533,22.893,9.533c8.949,0,16.59-3.167,22.925-9.5c6.333-6.333,9.5-13.975,9.5-22.925
				c0-8.95-3.156-16.602-9.469-22.957c-2.119-2.075-4.366-3.804-6.744-5.188c2.161-3.155,3.243-6.744,3.243-10.765
				c0-5.404-1.902-9.997-5.707-13.781c-3.805-3.783-8.388-5.674-13.748-5.674c-5.405,0-9.987,1.88-13.749,5.642
				c-2.7,2.7-3.508,6.809-0.584,9.76c3.545,3.577,6.41,1.164,9.792-0.552c1.254-1.253,2.767-1.88,4.54-1.88
				c1.816,0,3.35,0.627,4.604,1.88c1.254,1.255,1.88,2.789,1.88,4.605c0,1.773-0.626,3.297-1.88,4.572
				c-1.254,1.275-2.788,1.913-4.604,1.913c-8.387,0-8.367,12.97,0,12.97c5.36,0,9.943,1.891,13.748,5.674
				c3.804,3.784,5.707,8.377,5.707,13.781c0,5.361-1.902,9.944-5.707,13.748c-3.805,3.805-8.388,5.707-13.748,5.707
				c-5.405,0-9.987-1.902-13.749-5.707c-6.361-6.168-16.081,2.264-9.405,8.947C388.37,365.786,388.326,365.742,388.404,365.82z"/>
			<path d="M206,106h52c5.522,0,10-4.477,10-10s-4.478-10-10-10h-52c-5.522,0-10,4.477-10,10S200.478,106,206,106z"/>
			<path d="M292,106h8c5.522,0,10-4.477,10-10s-4.478-10-10-10h-8c-5.522,0-10,4.477-10,10S286.478,106,292,106z"/>
		</g>
	</g>
</g>
</svg>